<svg xmlns="http://www.w3.org/2000/svg" width="80" height="15" xmlns:v="https://vecta.io/nano"><defs><clipPath id="A"><path d="M171.998 239.12h20.614v12.484h-20.614z" fill="#000" fill-opacity="1" stroke="none" stroke-width=".922" stroke-miterlimit="4" stroke-dasharray="none" stroke-opacity="1"/></clipPath></defs><g transform="matrix(.987502 0 0 .933352 -323.90064 -331.6114)"><path d="M328.5 355.862h80v15h-80z" fill="#fff" stroke="#000" stroke-width="1.042"/><path d="M330 357.362h77v12h-77z"/><path d="M330 357.375v12h20.335c1.309-1.75 2.192-3.784 2.192-6 0-2.201-.868-4.257-2.161-6H330z" fill="#abb1aa"/><g clip-path="url(#A)" transform="matrix(.961253 0 0 .961253 164.834157 127.506999)"><path d="M190.064 245.362a7.05 7.05 0 0 1-7.043 7.051 7.05 7.05 0 0 1-.009-14.102 7.05 7.05 0 0 1 7.051 7.043z" fill="#fff"/><path d="M188.746 239.622c1.563 1.563 2.344 3.476 2.344 5.74s-.768 4.157-2.304 5.68c-1.63 1.604-3.556 2.405-5.779 2.405-2.196 0-4.089-.795-5.678-2.385s-2.385-3.489-2.385-5.7.795-4.123 2.385-5.74c1.549-1.563 3.442-2.345 5.678-2.345 2.263 0 4.176.781 5.739 2.345zm-10.365 1.051c-1.321 1.334-1.981 2.898-1.981 4.691s.654 3.343 1.961 4.65 2.864 1.961 4.67 1.961 3.376-.66 4.711-1.981c1.267-1.227 1.901-2.769 1.901-4.63 0-1.846-.644-3.413-1.931-4.701a6.37 6.37 0 0 0-4.68-1.931c-1.833 0-3.383.647-4.65 1.941zm3.477 3.902c-.202-.44-.504-.66-.907-.66-.712 0-1.069.48-1.069 1.439s.356 1.439 1.069 1.439c.47 0 .807-.233 1.008-.701l.988.526c-.471.836-1.177 1.255-2.119 1.255-.726 0-1.308-.223-1.745-.668s-.656-1.059-.656-1.842c0-.769.225-1.379.676-1.832s1.012-.678 1.685-.678c.995 0 1.708.392 2.139 1.176l-1.069.547zm4.646 0c-.202-.44-.498-.66-.889-.66-.727 0-1.09.48-1.09 1.439s.364 1.439 1.09 1.439c.471 0 .801-.233.99-.701l1.01.526c-.47.836-1.175 1.255-2.115 1.255-.725 0-1.306-.223-1.742-.668s-.654-1.059-.654-1.842c0-.769.222-1.379.665-1.832s1.007-.678 1.692-.678c.994 0 1.705.392 2.135 1.176l-1.09.547z"/></g><path d="M357.42 362.685c.245 0 .432-.054.558-.161s.19-.265.19-.474-.063-.363-.19-.47-.313-.165-.558-.165h-.862v1.27h.862m.053 2.624c.313 0 .548-.066.704-.197s.239-.33.239-.595c0-.26-.078-.454-.235-.583s-.392-.197-.708-.197h-.914v1.571h.914m1.449-2.158c.334.096.593.275.777.535s.275.579.275.956c0 .579-.197 1.01-.591 1.294s-.993.426-1.797.426H355v-6h2.339c.839 0 1.446.126 1.821.378s.566.655.566 1.21c0 .292-.069.541-.206.747s-.337.355-.599.454m.917-2.789h1.703l1.376 2.138 1.376-2.138H366l-2.302 3.472v2.528h-1.558v-2.528l-2.302-3.472m5.321 3.046h2.541v1.169h-2.541v-1.169m3.759-3.046h1.74l2.197 4.115v-4.115h1.477v6h-1.74l-2.197-4.115v4.115h-1.477v-6m11.734 5.67c-.286.147-.584.259-.894.334s-.634.113-.971.113c-1.006 0-1.803-.279-2.391-.836s-.882-1.318-.882-2.275.294-1.717.882-2.275 1.385-.84 2.391-.84a4.12 4.12 0 0 1 .971.113c.31.075.608.186.894.334v1.242c-.289-.196-.573-.339-.854-.43a2.85 2.85 0 0 0-.886-.137c-.556 0-.993.177-1.311.53s-.477.841-.477 1.463.159 1.105.477 1.459.755.53 1.311.53a2.85 2.85 0 0 0 .886-.137c.281-.091.565-.234.854-.43v1.242m1.177-2.624h2.541v1.169h-2.541v-1.169m7.963-2.857v1.27c-.332-.147-.655-.259-.971-.334s-.614-.113-.894-.113c-.372 0-.647.051-.825.153s-.267.26-.267.474a.45.45 0 0 0 .178.378c.121.088.34.165.655.229l.664.133c.672.134 1.149.338 1.432.611s.425.662.425 1.165c0 .662-.198 1.155-.595 1.479s-.997.482-1.809.482c-.383 0-.767-.036-1.153-.108s-.772-.18-1.157-.322v-1.306c.386.204.758.358 1.117.462s.709.153 1.044.153c.34 0 .6-.056.781-.169s.271-.273.271-.482c0-.188-.062-.332-.186-.434s-.366-.193-.732-.273l-.603-.133c-.604-.129-1.047-.334-1.327-.615s-.417-.66-.417-1.137c0-.597.194-1.057.583-1.378s.947-.482 1.675-.482a7.13 7.13 0 0 1 1.024.076 9.13 9.13 0 0 1 1.088.221m5.434 4.718h-2.436l-.384 1.093h-1.566l2.238-6h1.857l2.238 6h-1.566l-.38-1.093m-2.047-1.113h1.655l-.825-2.387-.829 2.387" fill="#fff"/></g></svg>