<?xml version="1.0" standalone="no"?>
<!DOCTYPE svg PUBLIC "-//W3C//DTD SVG 20010904//EN"
 "http://www.w3.org/TR/2001/REC-SVG-20010904/DTD/svg10.dtd">
<svg version="1.0" xmlns="http://www.w3.org/2000/svg"
 width="500.000000pt" height="500.000000pt" viewBox="0 0 500.000000 500.000000"
 preserveAspectRatio="xMidYMid meet">
<metadata>
Created by potrace 1.14, written by Peter Selinger 2001-2017
</metadata>
<g transform="translate(0.000000,500.000000) scale(0.100000,-0.100000)"
fill="#000000" stroke="none">
<path d="M1901 4643 c-34 -167 -84 -397 -120 -543 -24 -103 -250 -1027 -345
-1415 -14 -55 -23 -101 -21 -103 1 -2 205 51 451 118 626 170 635 172 640 167
2 -2 -11 -71 -30 -153 -48 -210 -171 -749 -212 -934 -19 -85 -48 -211 -64
-280 -42 -177 -233 -1012 -265 -1153 -15 -66 -25 -121 -23 -123 2 -2 20 34 40
79 20 45 108 237 196 427 88 190 370 802 627 1360 257 558 521 1132 587 1274
137 296 208 454 208 460 0 3 -48 -9 -107 -25 -60 -16 -238 -63 -398 -105 -159
-42 -357 -94 -439 -115 -82 -22 -151 -38 -153 -36 -2 2 17 62 43 133 25 71 97
275 159 454 97 281 196 554 220 613 7 16 -20 17 -482 17 l-489 0 -23 -117z"/>
</g>
</svg>
